solid OpenSCAD_Model
  facet normal 0 0 1
    outer loop
      vertex 66.8564 14.2108 0
      vertex 66.8564 -14.2108 0
      vertex 68.35 0 0
    endloop
  endfacet
  facet normal 0 0 1
    outer loop
      vertex 62.4408 27.8004 0
      vertex 66.8564 -14.2108 0
      vertex 66.8564 14.2108 0
    endloop
  endfacet
  facet normal 0 0 1
    outer loop
      vertex 62.4408 27.8004 0
      vertex 62.4408 -27.8004 0
      vertex 66.8564 -14.2108 0
    endloop
  endfacet
  facet normal 0 0 1
    outer loop
      vertex 55.2963 40.1751 0
      vertex 62.4408 -27.8004 0
      vertex 62.4408 27.8004 0
    endloop
  endfacet
  facet normal 0 0 1
    outer loop
      vertex 55.2963 40.1751 0
      vertex 55.2963 -40.1751 0
      vertex 62.4408 -27.8004 0
    endloop
  endfacet
  facet normal 0 0 1
    outer loop
      vertex 45.7351 50.7939 0
      vertex 55.2963 -40.1751 0
      vertex 55.2963 40.1751 0
    endloop
  endfacet
  facet normal 0 0 1
    outer loop
      vertex 45.7351 50.7939 0
      vertex 45.7351 -50.7939 0
      vertex 55.2963 -40.1751 0
    endloop
  endfacet
  facet normal 0 0 1
    outer loop
      vertex 34.175 59.1928 0
      vertex 45.7351 -50.7939 0
      vertex 45.7351 50.7939 0
    endloop
  endfacet
  facet normal 0 0 1
    outer loop
      vertex 34.175 59.1928 0
      vertex 34.175 -59.1928 0
      vertex 45.7351 -50.7939 0
    endloop
  endfacet
  facet normal 0 0 1
    outer loop
      vertex 21.1213 65.0047 0
      vertex 34.175 -59.1928 0
      vertex 34.175 59.1928 0
    endloop
  endfacet
  facet normal 0 0 1
    outer loop
      vertex 21.1213 65.0047 0
      vertex 21.1213 -65.0047 0
      vertex 34.175 -59.1928 0
    endloop
  endfacet
  facet normal 0 0 1
    outer loop
      vertex 7.14452 67.9756 0
      vertex 21.1213 -65.0047 0
      vertex 21.1213 65.0047 0
    endloop
  endfacet
  facet normal 0 0 1
    outer loop
      vertex 7.14452 67.9756 0
      vertex 7.14452 -67.9756 0
      vertex 21.1213 -65.0047 0
    endloop
  endfacet
  facet normal -0 0 1
    outer loop
      vertex -7.14452 67.9756 0
      vertex 7.14452 -67.9756 0
      vertex 7.14452 67.9756 0
    endloop
  endfacet
  facet normal 0 0 1
    outer loop
      vertex -7.14452 67.9756 0
      vertex -7.14452 -67.9756 0
      vertex 7.14452 -67.9756 0
    endloop
  endfacet
  facet normal -0 0 1
    outer loop
      vertex -21.1213 65.0047 0
      vertex -7.14452 -67.9756 0
      vertex -7.14452 67.9756 0
    endloop
  endfacet
  facet normal 0 0 1
    outer loop
      vertex -21.1213 65.0047 0
      vertex -21.1213 -65.0047 0
      vertex -7.14452 -67.9756 0
    endloop
  endfacet
  facet normal -0 0 1
    outer loop
      vertex -34.175 59.1928 0
      vertex -21.1213 -65.0047 0
      vertex -21.1213 65.0047 0
    endloop
  endfacet
  facet normal 0 0 1
    outer loop
      vertex -34.175 59.1928 0
      vertex -34.175 -59.1928 0
      vertex -21.1213 -65.0047 0
    endloop
  endfacet
  facet normal -0 0 1
    outer loop
      vertex -45.7351 50.7939 0
      vertex -34.175 -59.1928 0
      vertex -34.175 59.1928 0
    endloop
  endfacet
  facet normal 0 0 1
    outer loop
      vertex -45.7351 50.7939 0
      vertex -45.7351 -50.7939 0
      vertex -34.175 -59.1928 0
    endloop
  endfacet
  facet normal -0 0 1
    outer loop
      vertex -55.2963 40.1751 0
      vertex -45.7351 -50.7939 0
      vertex -45.7351 50.7939 0
    endloop
  endfacet
  facet normal 0 0 1
    outer loop
      vertex -55.2963 40.1751 0
      vertex -55.2963 -40.1751 0
      vertex -45.7351 -50.7939 0
    endloop
  endfacet
  facet normal -0 0 1
    outer loop
      vertex -62.4408 27.8004 0
      vertex -55.2963 -40.1751 0
      vertex -55.2963 40.1751 0
    endloop
  endfacet
  facet normal 0 0 1
    outer loop
      vertex -62.4408 27.8004 0
      vertex -62.4408 -27.8004 0
      vertex -55.2963 -40.1751 0
    endloop
  endfacet
  facet normal -0 0 1
    outer loop
      vertex -66.8564 14.2108 0
      vertex -62.4408 -27.8004 0
      vertex -62.4408 27.8004 0
    endloop
  endfacet
  facet normal 0 0 1
    outer loop
      vertex -66.8564 14.2108 0
      vertex -66.8564 -14.2108 0
      vertex -62.4408 -27.8004 0
    endloop
  endfacet
  facet normal 0 -0 1
    outer loop
      vertex -66.8564 -14.2108 0
      vertex -66.8564 14.2108 0
      vertex -68.35 0 0
    endloop
  endfacet
  facet normal 0.587785 0.809017 -0
    outer loop
      vertex 45.7351 50.7939 -43.2
      vertex 34.175 59.1928 0
      vertex 45.7351 50.7939 0
    endloop
  endfacet
  facet normal 0.587785 0.809017 0
    outer loop
      vertex 34.175 59.1928 0
      vertex 45.7351 50.7939 -43.2
      vertex 34.175 59.1928 -43.2
    endloop
  endfacet
  facet normal 0.207915 -0.978147 0
    outer loop
      vertex 7.14452 -67.9756 -43.2
      vertex 21.1213 -65.0047 0
      vertex 7.14452 -67.9756 0
    endloop
  endfacet
  facet normal 0.207915 -0.978147 0
    outer loop
      vertex 21.1213 -65.0047 0
      vertex 7.14452 -67.9756 -43.2
      vertex 21.1213 -65.0047 -43.2
    endloop
  endfacet
  facet normal -0.994522 -0.104527 0
    outer loop
      vertex -66.8564 -14.2108 -43.2
      vertex -68.35 0 0
      vertex -68.35 0 -43.2
    endloop
  endfacet
  facet normal -0.994522 -0.104527 0
    outer loop
      vertex -68.35 0 0
      vertex -66.8564 -14.2108 -43.2
      vertex -66.8564 -14.2108 0
    endloop
  endfacet
  facet normal 0.406738 0.913545 -0
    outer loop
      vertex 34.175 59.1928 -43.2
      vertex 21.1213 65.0047 0
      vertex 34.175 59.1928 0
    endloop
  endfacet
  facet normal 0.406738 0.913545 0
    outer loop
      vertex 21.1213 65.0047 0
      vertex 34.175 59.1928 -43.2
      vertex 21.1213 65.0047 -43.2
    endloop
  endfacet
  facet normal 0.994522 -0.104527 0
    outer loop
      vertex 66.8564 -14.2108 0
      vertex 68.35 0 -43.2
      vertex 68.35 0 0
    endloop
  endfacet
  facet normal 0.994522 -0.104527 0
    outer loop
      vertex 68.35 0 -43.2
      vertex 66.8564 -14.2108 0
      vertex 66.8564 -14.2108 -43.2
    endloop
  endfacet
  facet normal 0 0 -1
    outer loop
      vertex 66.8564 -14.2108 -43.2
      vertex 66.8564 14.2108 -43.2
      vertex 68.35 0 -43.2
    endloop
  endfacet
  facet normal 0 0 -1
    outer loop
      vertex 62.4408 -27.8004 -43.2
      vertex 66.8564 14.2108 -43.2
      vertex 66.8564 -14.2108 -43.2
    endloop
  endfacet
  facet normal 0 0 -1
    outer loop
      vertex 62.4408 -27.8004 -43.2
      vertex 62.4408 27.8004 -43.2
      vertex 66.8564 14.2108 -43.2
    endloop
  endfacet
  facet normal 0 0 -1
    outer loop
      vertex 55.2963 -40.1751 -43.2
      vertex 62.4408 27.8004 -43.2
      vertex 62.4408 -27.8004 -43.2
    endloop
  endfacet
  facet normal 0 0 -1
    outer loop
      vertex 55.2963 -40.1751 -43.2
      vertex 55.2963 40.1751 -43.2
      vertex 62.4408 27.8004 -43.2
    endloop
  endfacet
  facet normal 0 0 -1
    outer loop
      vertex 45.7351 -50.7939 -43.2
      vertex 55.2963 40.1751 -43.2
      vertex 55.2963 -40.1751 -43.2
    endloop
  endfacet
  facet normal 0 0 -1
    outer loop
      vertex 45.7351 -50.7939 -43.2
      vertex 45.7351 50.7939 -43.2
      vertex 55.2963 40.1751 -43.2
    endloop
  endfacet
  facet normal 0 0 -1
    outer loop
      vertex 34.175 -59.1928 -43.2
      vertex 45.7351 50.7939 -43.2
      vertex 45.7351 -50.7939 -43.2
    endloop
  endfacet
  facet normal 0 0 -1
    outer loop
      vertex 34.175 -59.1928 -43.2
      vertex 34.175 59.1928 -43.2
      vertex 45.7351 50.7939 -43.2
    endloop
  endfacet
  facet normal 0 0 -1
    outer loop
      vertex 21.1213 -65.0047 -43.2
      vertex 34.175 59.1928 -43.2
      vertex 34.175 -59.1928 -43.2
    endloop
  endfacet
  facet normal 0 0 -1
    outer loop
      vertex 21.1213 -65.0047 -43.2
      vertex 21.1213 65.0047 -43.2
      vertex 34.175 59.1928 -43.2
    endloop
  endfacet
  facet normal 0 0 -1
    outer loop
      vertex 7.14452 -67.9756 -43.2
      vertex 21.1213 65.0047 -43.2
      vertex 21.1213 -65.0047 -43.2
    endloop
  endfacet
  facet normal 0 0 -1
    outer loop
      vertex 7.14452 -67.9756 -43.2
      vertex 7.14452 67.9756 -43.2
      vertex 21.1213 65.0047 -43.2
    endloop
  endfacet
  facet normal 0 0 -1
    outer loop
      vertex -7.14452 -67.9756 -43.2
      vertex 7.14452 67.9756 -43.2
      vertex 7.14452 -67.9756 -43.2
    endloop
  endfacet
  facet normal 0 0 -1
    outer loop
      vertex -7.14452 -67.9756 -43.2
      vertex -7.14452 67.9756 -43.2
      vertex 7.14452 67.9756 -43.2
    endloop
  endfacet
  facet normal 0 0 -1
    outer loop
      vertex -21.1213 -65.0047 -43.2
      vertex -7.14452 67.9756 -43.2
      vertex -7.14452 -67.9756 -43.2
    endloop
  endfacet
  facet normal 0 0 -1
    outer loop
      vertex -21.1213 -65.0047 -43.2
      vertex -21.1213 65.0047 -43.2
      vertex -7.14452 67.9756 -43.2
    endloop
  endfacet
  facet normal 0 0 -1
    outer loop
      vertex -34.175 -59.1928 -43.2
      vertex -21.1213 65.0047 -43.2
      vertex -21.1213 -65.0047 -43.2
    endloop
  endfacet
  facet normal 0 0 -1
    outer loop
      vertex -34.175 -59.1928 -43.2
      vertex -34.175 59.1928 -43.2
      vertex -21.1213 65.0047 -43.2
    endloop
  endfacet
  facet normal 0 0 -1
    outer loop
      vertex -45.7351 -50.7939 -43.2
      vertex -34.175 59.1928 -43.2
      vertex -34.175 -59.1928 -43.2
    endloop
  endfacet
  facet normal 0 0 -1
    outer loop
      vertex -45.7351 -50.7939 -43.2
      vertex -45.7351 50.7939 -43.2
      vertex -34.175 59.1928 -43.2
    endloop
  endfacet
  facet normal 0 0 -1
    outer loop
      vertex -55.2963 -40.1751 -43.2
      vertex -45.7351 50.7939 -43.2
      vertex -45.7351 -50.7939 -43.2
    endloop
  endfacet
  facet normal 0 0 -1
    outer loop
      vertex -55.2963 -40.1751 -43.2
      vertex -55.2963 40.1751 -43.2
      vertex -45.7351 50.7939 -43.2
    endloop
  endfacet
  facet normal 0 0 -1
    outer loop
      vertex -62.4408 -27.8004 -43.2
      vertex -55.2963 40.1751 -43.2
      vertex -55.2963 -40.1751 -43.2
    endloop
  endfacet
  facet normal 0 0 -1
    outer loop
      vertex -62.4408 -27.8004 -43.2
      vertex -62.4408 27.8004 -43.2
      vertex -55.2963 40.1751 -43.2
    endloop
  endfacet
  facet normal 0 0 -1
    outer loop
      vertex -66.8564 -14.2108 -43.2
      vertex -62.4408 27.8004 -43.2
      vertex -62.4408 -27.8004 -43.2
    endloop
  endfacet
  facet normal 0 0 -1
    outer loop
      vertex -66.8564 -14.2108 -43.2
      vertex -66.8564 14.2108 -43.2
      vertex -62.4408 27.8004 -43.2
    endloop
  endfacet
  facet normal 0 -0 -1
    outer loop
      vertex -66.8564 14.2108 -43.2
      vertex -66.8564 -14.2108 -43.2
      vertex -68.35 0 -43.2
    endloop
  endfacet
  facet normal 0.866027 0.499998 0
    outer loop
      vertex 62.4408 27.8004 0
      vertex 55.2963 40.1751 -43.2
      vertex 55.2963 40.1751 0
    endloop
  endfacet
  facet normal 0.866027 0.499998 0
    outer loop
      vertex 55.2963 40.1751 -43.2
      vertex 62.4408 27.8004 0
      vertex 62.4408 27.8004 -43.2
    endloop
  endfacet
  facet normal -0.743145 0.66913 0
    outer loop
      vertex -55.2963 40.1751 -43.2
      vertex -45.7351 50.7939 0
      vertex -45.7351 50.7939 -43.2
    endloop
  endfacet
  facet normal -0.743145 0.66913 0
    outer loop
      vertex -45.7351 50.7939 0
      vertex -55.2963 40.1751 -43.2
      vertex -55.2963 40.1751 0
    endloop
  endfacet
  facet normal 0.743145 -0.66913 0
    outer loop
      vertex 45.7351 -50.7939 0
      vertex 55.2963 -40.1751 -43.2
      vertex 55.2963 -40.1751 0
    endloop
  endfacet
  facet normal 0.743145 -0.66913 0
    outer loop
      vertex 55.2963 -40.1751 -43.2
      vertex 45.7351 -50.7939 0
      vertex 45.7351 -50.7939 -43.2
    endloop
  endfacet
  facet normal 0.743145 0.66913 0
    outer loop
      vertex 55.2963 40.1751 0
      vertex 45.7351 50.7939 -43.2
      vertex 45.7351 50.7939 0
    endloop
  endfacet
  facet normal 0.743145 0.66913 0
    outer loop
      vertex 45.7351 50.7939 -43.2
      vertex 55.2963 40.1751 0
      vertex 55.2963 40.1751 -43.2
    endloop
  endfacet
  facet normal 0.994522 0.104527 0
    outer loop
      vertex 68.35 0 0
      vertex 66.8564 14.2108 -43.2
      vertex 66.8564 14.2108 0
    endloop
  endfacet
  facet normal 0.994522 0.104527 0
    outer loop
      vertex 66.8564 14.2108 -43.2
      vertex 68.35 0 0
      vertex 68.35 0 -43.2
    endloop
  endfacet
  facet normal -0.587785 0.809017 0
    outer loop
      vertex -34.175 59.1928 -43.2
      vertex -45.7351 50.7939 0
      vertex -34.175 59.1928 0
    endloop
  endfacet
  facet normal -0.587785 0.809017 0
    outer loop
      vertex -45.7351 50.7939 0
      vertex -34.175 59.1928 -43.2
      vertex -45.7351 50.7939 -43.2
    endloop
  endfacet
  facet normal -0.994522 0.104527 0
    outer loop
      vertex -68.35 0 -43.2
      vertex -66.8564 14.2108 0
      vertex -66.8564 14.2108 -43.2
    endloop
  endfacet
  facet normal -0.994522 0.104527 0
    outer loop
      vertex -66.8564 14.2108 0
      vertex -68.35 0 -43.2
      vertex -68.35 0 0
    endloop
  endfacet
  facet normal 0.951055 0.309022 0
    outer loop
      vertex 66.8564 14.2108 0
      vertex 62.4408 27.8004 -43.2
      vertex 62.4408 27.8004 0
    endloop
  endfacet
  facet normal 0.951055 0.309022 0
    outer loop
      vertex 62.4408 27.8004 -43.2
      vertex 66.8564 14.2108 0
      vertex 66.8564 14.2108 -43.2
    endloop
  endfacet
  facet normal -0.406738 -0.913545 0
    outer loop
      vertex -34.175 -59.1928 -43.2
      vertex -21.1213 -65.0047 0
      vertex -34.175 -59.1928 0
    endloop
  endfacet
  facet normal -0.406738 -0.913545 -0
    outer loop
      vertex -21.1213 -65.0047 0
      vertex -34.175 -59.1928 -43.2
      vertex -21.1213 -65.0047 -43.2
    endloop
  endfacet
  facet normal -0.207915 -0.978147 0
    outer loop
      vertex -21.1213 -65.0047 -43.2
      vertex -7.14452 -67.9756 0
      vertex -21.1213 -65.0047 0
    endloop
  endfacet
  facet normal -0.207915 -0.978147 -0
    outer loop
      vertex -7.14452 -67.9756 0
      vertex -21.1213 -65.0047 -43.2
      vertex -7.14452 -67.9756 -43.2
    endloop
  endfacet
  facet normal 0.406738 -0.913545 0
    outer loop
      vertex 21.1213 -65.0047 -43.2
      vertex 34.175 -59.1928 0
      vertex 21.1213 -65.0047 0
    endloop
  endfacet
  facet normal 0.406738 -0.913545 0
    outer loop
      vertex 34.175 -59.1928 0
      vertex 21.1213 -65.0047 -43.2
      vertex 34.175 -59.1928 -43.2
    endloop
  endfacet
  facet normal -0.743145 -0.66913 0
    outer loop
      vertex -45.7351 -50.7939 -43.2
      vertex -55.2963 -40.1751 0
      vertex -55.2963 -40.1751 -43.2
    endloop
  endfacet
  facet normal -0.743145 -0.66913 0
    outer loop
      vertex -55.2963 -40.1751 0
      vertex -45.7351 -50.7939 -43.2
      vertex -45.7351 -50.7939 0
    endloop
  endfacet
  facet normal 0 1 -0
    outer loop
      vertex 7.14452 67.9756 -43.2
      vertex -7.14452 67.9756 0
      vertex 7.14452 67.9756 0
    endloop
  endfacet
  facet normal 0 1 0
    outer loop
      vertex -7.14452 67.9756 0
      vertex 7.14452 67.9756 -43.2
      vertex -7.14452 67.9756 -43.2
    endloop
  endfacet
  facet normal -0.207915 0.978147 0
    outer loop
      vertex -7.14452 67.9756 -43.2
      vertex -21.1213 65.0047 0
      vertex -7.14452 67.9756 0
    endloop
  endfacet
  facet normal -0.207915 0.978147 0
    outer loop
      vertex -21.1213 65.0047 0
      vertex -7.14452 67.9756 -43.2
      vertex -21.1213 65.0047 -43.2
    endloop
  endfacet
  facet normal -0.951055 0.309022 0
    outer loop
      vertex -66.8564 14.2108 -43.2
      vertex -62.4408 27.8004 0
      vertex -62.4408 27.8004 -43.2
    endloop
  endfacet
  facet normal -0.951055 0.309022 0
    outer loop
      vertex -62.4408 27.8004 0
      vertex -66.8564 14.2108 -43.2
      vertex -66.8564 14.2108 0
    endloop
  endfacet
  facet normal -0.587785 -0.809017 0
    outer loop
      vertex -45.7351 -50.7939 -43.2
      vertex -34.175 -59.1928 0
      vertex -45.7351 -50.7939 0
    endloop
  endfacet
  facet normal -0.587785 -0.809017 -0
    outer loop
      vertex -34.175 -59.1928 0
      vertex -45.7351 -50.7939 -43.2
      vertex -34.175 -59.1928 -43.2
    endloop
  endfacet
  facet normal 0 -1 0
    outer loop
      vertex -7.14452 -67.9756 -43.2
      vertex 7.14452 -67.9756 0
      vertex -7.14452 -67.9756 0
    endloop
  endfacet
  facet normal 0 -1 -0
    outer loop
      vertex 7.14452 -67.9756 0
      vertex -7.14452 -67.9756 -43.2
      vertex 7.14452 -67.9756 -43.2
    endloop
  endfacet
  facet normal -0.951055 -0.309022 0
    outer loop
      vertex -62.4408 -27.8004 -43.2
      vertex -66.8564 -14.2108 0
      vertex -66.8564 -14.2108 -43.2
    endloop
  endfacet
  facet normal -0.951055 -0.309022 0
    outer loop
      vertex -66.8564 -14.2108 0
      vertex -62.4408 -27.8004 -43.2
      vertex -62.4408 -27.8004 0
    endloop
  endfacet
  facet normal -0.866027 -0.499998 0
    outer loop
      vertex -55.2963 -40.1751 -43.2
      vertex -62.4408 -27.8004 0
      vertex -62.4408 -27.8004 -43.2
    endloop
  endfacet
  facet normal -0.866027 -0.499998 0
    outer loop
      vertex -62.4408 -27.8004 0
      vertex -55.2963 -40.1751 -43.2
      vertex -55.2963 -40.1751 0
    endloop
  endfacet
  facet normal -0.406738 0.913545 0
    outer loop
      vertex -21.1213 65.0047 -43.2
      vertex -34.175 59.1928 0
      vertex -21.1213 65.0047 0
    endloop
  endfacet
  facet normal -0.406738 0.913545 0
    outer loop
      vertex -34.175 59.1928 0
      vertex -21.1213 65.0047 -43.2
      vertex -34.175 59.1928 -43.2
    endloop
  endfacet
  facet normal 0.207915 0.978147 -0
    outer loop
      vertex 21.1213 65.0047 -43.2
      vertex 7.14452 67.9756 0
      vertex 21.1213 65.0047 0
    endloop
  endfacet
  facet normal 0.207915 0.978147 0
    outer loop
      vertex 7.14452 67.9756 0
      vertex 21.1213 65.0047 -43.2
      vertex 7.14452 67.9756 -43.2
    endloop
  endfacet
  facet normal 0.951055 -0.309022 0
    outer loop
      vertex 62.4408 -27.8004 0
      vertex 66.8564 -14.2108 -43.2
      vertex 66.8564 -14.2108 0
    endloop
  endfacet
  facet normal 0.951055 -0.309022 0
    outer loop
      vertex 66.8564 -14.2108 -43.2
      vertex 62.4408 -27.8004 0
      vertex 62.4408 -27.8004 -43.2
    endloop
  endfacet
  facet normal 0.866027 -0.499998 0
    outer loop
      vertex 55.2963 -40.1751 0
      vertex 62.4408 -27.8004 -43.2
      vertex 62.4408 -27.8004 0
    endloop
  endfacet
  facet normal 0.866027 -0.499998 0
    outer loop
      vertex 62.4408 -27.8004 -43.2
      vertex 55.2963 -40.1751 0
      vertex 55.2963 -40.1751 -43.2
    endloop
  endfacet
  facet normal 0.587785 -0.809017 0
    outer loop
      vertex 34.175 -59.1928 -43.2
      vertex 45.7351 -50.7939 0
      vertex 34.175 -59.1928 0
    endloop
  endfacet
  facet normal 0.587785 -0.809017 0
    outer loop
      vertex 45.7351 -50.7939 0
      vertex 34.175 -59.1928 -43.2
      vertex 45.7351 -50.7939 -43.2
    endloop
  endfacet
  facet normal -0.866027 0.499998 0
    outer loop
      vertex -62.4408 27.8004 -43.2
      vertex -55.2963 40.1751 0
      vertex -55.2963 40.1751 -43.2
    endloop
  endfacet
  facet normal -0.866027 0.499998 0
    outer loop
      vertex -55.2963 40.1751 0
      vertex -62.4408 27.8004 -43.2
      vertex -62.4408 27.8004 0
    endloop
  endfacet
endsolid OpenSCAD_Model
